<?xml version="1.0" standalone="no"?>
<!DOCTYPE svg PUBLIC "-//W3C//DTD SVG 20010904//EN"
 "http://www.w3.org/TR/2001/REC-SVG-20010904/DTD/svg10.dtd">
<svg version="1.0" xmlns="http://www.w3.org/2000/svg"
 width="2560.000000pt" height="2560.000000pt" viewBox="0 0 2560.000000 2560.000000"
 preserveAspectRatio="xMidYMid meet">
<metadata>
Created by potrace 1.11, written by Peter Selinger 2001-2013
</metadata>
<g transform="translate(0.000000,2560.000000) scale(0.100000,-0.100000)"
fill="#000000" stroke="none">
<path d="M17804 25488 c-31 -62 -100 -198 -154 -303 -94 -184 -228 -446 -518
-1015 -77 -151 -185 -363 -239 -470 -55 -107 -180 -352 -278 -545 -98 -192
-224 -440 -280 -550 -56 -110 -167 -326 -245 -480 -78 -154 -198 -388 -265
-520 -67 -132 -187 -366 -265 -520 -78 -154 -197 -386 -262 -515 -66 -129
-179 -350 -250 -490 -72 -140 -192 -376 -268 -525 -153 -300 -286 -560 -517
-1015 -86 -168 -211 -413 -278 -545 -290 -568 -376 -736 -517 -1015 -83 -162
-199 -389 -258 -505 -59 -115 -172 -336 -250 -490 -78 -154 -198 -388 -265
-520 -67 -132 -193 -379 -280 -550 -87 -170 -206 -404 -265 -520 -59 -115
-167 -327 -240 -470 -134 -263 -320 -629 -525 -1030 -62 -121 -179 -350 -260
-510 -81 -159 -200 -393 -265 -520 -65 -126 -184 -360 -265 -520 -81 -159
-200 -393 -265 -520 -65 -126 -186 -365 -270 -530 -84 -165 -201 -394 -260
-510 -101 -197 -181 -354 -530 -1040 -78 -154 -194 -381 -258 -505 -63 -124
-176 -346 -252 -495 -235 -461 -387 -760 -522 -1025 -215 -420 -378 -739 -523
-1025 -76 -148 -188 -369 -250 -490 -62 -121 -186 -364 -275 -540 -89 -176
-206 -405 -260 -510 -54 -104 -171 -334 -260 -510 -89 -176 -204 -401 -255
-500 -51 -99 -182 -355 -291 -570 -109 -214 -262 -516 -341 -670 -79 -154
-173 -338 -209 -410 -36 -71 -108 -213 -160 -315 -81 -157 -346 -678 -541
-1060 -29 -58 -53 -108 -53 -111 0 -3 657 -6 1460 -6 l1460 0 96 191 c53 105
129 254 169 331 40 77 146 284 235 460 89 176 211 415 270 530 59 116 183 359
275 540 92 182 209 411 260 510 51 99 166 324 255 500 89 176 204 401 255 500
51 99 163 320 250 490 87 171 217 427 290 570 431 845 578 1135 770 1510 135
263 301 589 550 1080 90 176 209 408 264 515 55 107 107 211 116 230 8 19 19
42 24 50 8 13 125 241 404 790 43 85 127 250 186 365 59 116 185 363 281 550
95 187 216 426 270 530 54 105 171 334 260 510 250 491 441 866 661 1295 18
36 33 67 34 70 0 3 3 10 6 15 10 16 175 337 344 670 170 333 345 677 540 1060
67 132 189 371 270 530 81 160 195 382 252 495 58 113 173 338 255 500 83 162
208 408 278 545 70 138 187 367 260 510 73 143 186 365 252 494 66 129 129
253 140 275 11 23 24 50 30 61 13 23 130 252 343 670 81 160 152 296 157 303
6 6 7 12 3 12 -4 0 -3 6 3 13 10 12 58 105 339 657 224 441 513 1007 823 1615
70 138 190 374 268 525 240 472 400 787 517 1015 62 121 175 344 253 495 203
399 373 732 509 1000 66 129 194 379 283 555 89 176 211 415 270 530 59 116
181 354 270 530 90 176 171 336 182 355 10 19 18 38 18 42 0 5 -657 8 -1460 8
l-1460 0 -56 -112z"/>
</g>
</svg>
